<!DOCTYPE svg PUBLIC "-//W3C//DTD SVG 1.1//EN" "http://www.w3.org/Graphics/SVG/1.1/DTD/svg11.dtd">

<!-- Uploaded to: SVG Repo, www.svgrepo.com, Transformed by: SVG Repo Mixer Tools -->
<svg width="800px" height="800px" viewBox="-51.2 -51.2 614.40 614.40" xmlns="http://www.w3.org/2000/svg" fill="#ffffff" stroke="#ffffff">

<g id="SVGRepo_bgCarrier" stroke-width="0">

<rect x="-51.2" y="-51.2" width="614.40" height="614.40" rx="307.2" fill="#27272a" strokewidth="0"/>

</g>

<g id="SVGRepo_tracerCarrier" stroke-linecap="round" stroke-linejoin="round"/>

<g id="SVGRepo_iconCarrier">

<path fill="none" stroke="#ffffff" stroke-width="32" stroke-linejoin="round" d="M240,152c-50.71,12.21-94.15,52.31-120.3,73.43a261.14,261.14,0,0,0-23.81-19.58C59.53,179.29,16,176,16,176s11.37,51.53,41.36,79.83C27.37,284.14,16,335.67,16,335.67s43.53-3.29,79.89-29.85a259.18,259.18,0,0,0,23.61-19.41C145.6,307.55,189.24,347.75,240,360l-16,56c39.43-6.67,78.86-35.51,94.72-48.25C448,362,496,279,496,256c0-22-48-106-176.89-111.73C303.52,131.78,263.76,102.72,224,96Z"/>

<circle cx="416" cy="239.99" r="16"/>

<path fill="none" stroke="#ffffff" stroke-width="32" stroke-linecap="round" stroke-miterlimit="20" d="M378.37,356a199.22,199.22,0,0,1,0-200"/>

</g>

</svg>